<svg width="267" height="228" viewBox="0 0 267 228" fill="none" xmlns="http://www.w3.org/2000/svg">
<path d="M63.5852 40.7509C97.9358 37.0947 129.621 67.4581 134.043 108.995C138.464 150.533 113.879 186.886 79.5287 190.543C45.1781 194.199 13.4931 163.834 9.07197 122.297C4.651 80.7599 29.2347 44.4073 63.5852 40.7509Z" stroke="white" stroke-width="2"/>
<path d="M65.3867 52.5884C91.6921 47.4416 118.459 69.3931 124.865 102.131C131.271 134.869 114.751 165.291 88.4458 170.439C62.1402 175.586 35.3718 153.634 28.966 120.895C22.5605 88.1569 39.0812 57.7354 65.3867 52.5884Z" stroke="white" stroke-width="2"/>
<line x1="64.7534" y1="67.8506" x2="80.5965" y2="122.835" stroke="white" stroke-width="2"/>
<line x1="79.1334" y1="122.248" x2="108.024" y2="105.473" stroke="white" stroke-width="2"/>
<path d="M134.892 39.2623C134.129 40.3627 130.397 49.9384 128.669 54.634C126.831 59.6259 143.354 45.8787 145.355 44.4074C147.016 43.1862 147.003 49.3144 150.794 52.3911C153.572 54.6459 156.697 55.3638 158.511 55.867C161.554 56.7111 165.829 53.3674 167.885 50.6246C168.352 50.002 168.381 49.1198 168.657 48.5544C168.933 47.9891 169.26 47.6569 170.083 47.6519C174.396 47.6255 177.84 48.6567 181.154 48.2122C182.773 47.995 184.133 46.7611 185.343 45.5348C187.582 43.2652 187.769 40.0608 187.997 33.9728C188.114 30.8633 184.708 28.0962 183.315 25.8483C181.908 23.5776 183.261 19.366 181.778 16.6249C180.054 13.437 174.799 10.5352 168.194 8.3443C163.808 6.88948 160.567 8.50199 159.852 9.39447C159.521 9.8067 159.463 10.2869 159.243 10.349C157.237 10.9156 156.059 4.38854 150.234 1.69098C146.625 0.0202119 142.62 1.79164 140.088 2.68411C137.354 3.64806 136.664 7.59609 135.611 11.2331C135.372 12.0604 135.335 12.7429 135.006 13.0298C134.33 13.6195 131.825 13.0919 128.799 13.3133C126.658 13.47 125.532 14.8768 124.653 16.3229C122.011 20.6686 123.542 24.5934 124.641 27.1199C125.104 28.1826 126.074 28.7471 126.463 29.0827C126.922 29.4799 124.544 29.6396 123.278 30.5321C121.433 31.8326 122.002 35.6655 122.44 38.192C122.628 39.2753 123.761 39.8192 124.694 40.2655C126.953 40.9399 129.155 40.7184 132.84 39.3797C133.676 39.0408 134.112 38.8194 134.562 38.5912" stroke="white" stroke-width="2" stroke-linecap="round"/>
<path d="M143.638 188.726C143.885 185.494 145.867 178.059 148.242 171.54C150.324 165.826 151.866 160.076 152.734 154.462C153.948 146.607 157.596 135.406 159.339 129.28C161.296 122.402 163.82 117.932 166.816 112.82C169.115 108.895 172.048 105.71 174.423 102.093C176.75 98.5487 182.012 97.7208 187.502 96.7222C198.494 94.723 217.169 97.2121 225.887 100.073C231.57 101.939 236.124 103.196 240.986 105.56C246.675 108.326 255.288 114.372 261.561 122.125C265.857 127.436 264.818 132.848 265.439 137.467C266.221 143.284 264.324 147.315 263.079 151.186C260.337 154.309 257.353 157.294 252.375 158.677C250.628 158.805 248.406 158.805 246.866 158.805" stroke="white" stroke-width="2" stroke-linecap="round"/>
<path d="M211.708 202.938C211.955 194.224 215.419 186.287 218.43 178.163C223.337 164.923 226.16 160.076 231.011 152.85C236.15 145.196 243.829 140.373 250.583 136.749C253.325 135.278 256.575 135.616 259.313 135.986C260.57 136.356 261.557 137.097 262.436 137.849C263.315 138.6 264.055 139.341 265.566 140.852" stroke="white" stroke-width="2" stroke-linecap="round"/>
<path d="M249.11 158.804C247.135 157.817 245.13 156.321 243.017 154.331C241.891 153.329 240.657 152.341 239.774 151.339C238.892 150.337 238.398 149.349 237.141 147.584" stroke="white" stroke-width="2" stroke-linecap="round"/>
<path d="M181.039 111.679C179.566 113.9 173.821 119.398 172.568 121.388C172.549 122.39 173.783 123.378 175.16 124.01C176.536 124.642 178.017 124.889 181.039 125.891" stroke="white" stroke-width="2" stroke-linecap="round"/>
<path d="M196 115.419C195.012 116.653 194.025 117.887 193.146 118.894C192.267 119.9 191.527 120.64 190.898 121.639C190.27 122.637 189.776 123.872 189.268 125.891" stroke="white" stroke-width="2" stroke-linecap="round"/>
<path d="M215.448 122.151C211.005 120.177 207.482 119.159 205.612 120.023C203.189 121.143 205.963 125.383 207.213 127.373C207.764 128.25 206.981 129.362 206.233 129.871C205.485 130.38 204.497 130.38 203.372 130.256C202.246 130.133 201.012 129.886 198.244 128.136" stroke="white" stroke-width="2" stroke-linecap="round"/>
<path d="M221.433 123.647C222.914 124.882 224.395 126.116 225.652 126.999C226.908 127.881 227.896 128.375 229.661 129.632" stroke="white" stroke-width="2" stroke-linecap="round"/>
<path d="M224.425 125.891C224.919 125.891 224.185 126.632 222.196 128.371C220.206 130.604 218.448 133.11 216.956 135.844C216.204 137.343 215.463 139.071 215.448 141.6" stroke="white" stroke-width="2" stroke-linecap="round"/>
<path d="M126.433 207.426C125.693 205.189 123.696 201.711 122.199 195.233C121.855 193.74 121.945 192.735 122.562 192.72C127.576 192.598 130.907 197.687 135.14 200.683C141.161 204.943 148.829 206.663 154.963 208.294C160.614 209.796 166.542 211.406 173.163 212.038C178.538 212.551 185.497 215.624 191.366 217.397C196.182 218.852 199.231 219.14 201.221 219.641C203.207 220.142 205.462 217.906 207.703 216.414C210.459 213.171 210.96 208.945 211.207 205.085C211.454 203.447 211.948 202.459 212.456 201.442" stroke="white" stroke-width="2" stroke-linecap="round"/>
<path d="M143.638 188.784C143.52 189.732 142.808 192.11 142.15 194.439C141.137 196.41 139.946 198.313 138.576 199.808C138.158 200.108 137.686 200.345 136.484 200.945" stroke="white" stroke-width="2" stroke-linecap="round"/>
<path d="M126.826 207.742C128.489 210.957 130.396 212.385 132.123 214.173C133.416 215.511 135.521 216.201 137.954 217.686C141.775 220.018 147.54 221.213 152.959 221.865C159.348 222.635 163.654 224.668 166.105 225.029C168.367 225.363 171.874 225.863 175.637 226.281C179.502 226.711 189.688 226.7 196.151 226.106C198.761 225.866 201.456 222.772 202.951 221.281C203.488 220.39 204.085 219.549 204.681 218.777C204.922 218.358 205.04 217.886 205.162 217.4" stroke="white" stroke-width="2" stroke-linecap="round"/>
<path d="M165.815 135.486C166.995 136.195 169.964 137.032 173.954 137.924C176.467 138.486 181.983 140.008 192.619 142.501C198.572 143.896 205.498 146.174 209.322 147.387C213.618 148.836 214.695 149.433 215.825 150.147C216.365 150.506 216.837 150.86 216.608 151.583" stroke="white" stroke-width="2" stroke-linecap="round"/>
<path d="M161.523 147.291C167.425 148.707 171.41 149.791 176.382 150.977C180.382 151.931 187.492 153.107 192.675 154.425C204.797 158.497 207.77 159.209 210.508 159.984C211.712 160.286 212.538 160.404 214.462 160.883" stroke="white" stroke-width="2" stroke-linecap="round"/>
<path d="M159.019 161.956C159.019 161.838 159.019 161.72 164.154 162.545C169.288 163.369 179.558 165.14 186.088 166.465C198.713 170.058 202.522 171.965 204.797 172.744C205.277 172.923 205.749 173.159 206.593 174.118" stroke="white" stroke-width="2" stroke-linecap="round"/>
<path d="M157.588 175.549C163.726 176.257 173.144 177.684 182.977 179.53C187.366 180.354 192.006 182.807 198.559 185.368C202.043 186.866 203.96 187.471 205.804 187.768C206.704 187.947 207.53 188.183 207.666 188.426" stroke="white" stroke-width="2" stroke-linecap="round"/>
<path d="M154.011 188.068C155.313 188.186 164.785 189.606 171.168 191.223C172.864 191.653 174.747 192.121 178.894 192.949C192.521 196.768 193.945 198.198 195.73 199.15C196.57 199.629 197.278 200.101 198.008 199.515" stroke="white" stroke-width="2" stroke-linecap="round"/>
<path d="M31.9054 53.2727C31.7147 53.0827 31.524 52.8926 31.1503 52.1307C30.7766 51.3688 30.2256 50.0407 29.4757 48.5024C28.7257 46.9642 27.7934 45.256 26.0366 42.2305" stroke="white" stroke-width="2" stroke-linecap="round"/>
<path d="M48.1283 41.5799C47.9376 41.3898 47.7469 41.1998 47.3732 40.4378C46.9995 39.6759 46.4485 38.3478 45.6986 36.8096C44.9486 35.2713 44.0163 33.5631 42.2595 30.5376" stroke="white" stroke-width="2" stroke-linecap="round"/>
<path d="M22.9272 44.2155C24.0121 43.782 26.4693 42.194 28.4027 40.9523C29.7744 40.0713 30.9111 38.9917 33.1091 37.0442C42.021 29.9861 43.0383 29.2586 43.6178 28.9688C43.9097 28.8229 44.1973 28.6791 44.7114 27.8774" stroke="white" stroke-width="2" stroke-linecap="round"/>
<path d="M33.861 11C32.7929 11.4734 28.2255 11.2167 26.3395 12.5291C25.0013 13.4603 23.5616 13.5184 21.4372 15.5459C12.7928 22.9292 14.3176 26.6915 13.7492 27.0025C13.4629 27.1591 14.0843 27.1491 13.6002 27.9693" stroke="white" stroke-width="2" stroke-linecap="round"/>
<path d="M13.3416 27.4053C13.4135 27.7981 13.847 28.6988 14.3928 29.6029C14.9153 30.4684 15.3722 31.4077 15.9899 32.2839C16.6092 33.1624 17.551 34.0591 18.1327 35.1893C18.7363 36.3619 19.7298 37.3336 20.3115 38.2377C20.8932 39.1418 21.329 40.0425 21.9815 41.0871C22.3465 42.02 22.5644 42.6973 22.7452 43.1476C22.8541 43.3745 22.9979 43.598 23.1461 43.9976" stroke="white" stroke-width="2" stroke-linecap="round"/>
<path d="M34.7178 11C34.7897 11.3928 35.2233 12.2935 35.769 13.1976C36.2915 14.0631 36.7484 15.0025 37.3661 15.8786C37.9854 16.7571 38.9272 17.6538 39.5089 18.784C40.1125 19.9566 41.106 20.9283 41.6877 21.8324C42.2694 22.7365 42.7052 23.6372 43.3577 24.6819C43.7227 25.6148 43.9406 26.292 44.1214 26.7424C44.2304 26.9692 44.3742 27.1927 44.5223 27.5923" stroke="white" stroke-width="2" stroke-linecap="round"/>
<line x1="18.9255" y1="24.7296" x2="27.9758" y2="36.7967" stroke="white" stroke-width="2"/>
<line x1="25.7611" y1="18.7664" x2="33.303" y2="30.8335" stroke="white" stroke-width="2"/>
<line x1="32.5954" y1="15.0782" x2="38.6289" y2="27.1453" stroke="white" stroke-width="2"/>
</svg>
