<svg width="41" height="40" viewBox="0 0 41 40" fill="none" xmlns="http://www.w3.org/2000/svg">
<path d="M12.737 10.1127C12.7702 10.0846 12.8035 10.0564 12.8372 10.0285L15.7097 7.65152C15.7471 7.62055 15.7848 7.58993 15.8225 7.5595L12.737 10.1127ZM31.2321 26.1451L28.3596 28.5221C28.3438 28.5352 28.3274 28.5476 28.3116 28.5606L31.2797 26.1045C31.2637 26.1179 31.2482 26.1318 31.2321 26.1451ZM32.7161 9.24802C36.2991 13.5167 36.4164 19.5664 33.327 23.8957L18.3157 6.011C23.1614 3.77438 29.1332 4.97942 32.7161 9.24802Z" fill="white"/>
<path d="M15.5214 39.1442L0.000669441 20.653L16.3318 7.1394L31.8526 25.6306L15.5214 39.1442Z" fill="white"/>
</svg>
