<svg width="209" height="223" viewBox="0 0 209 223" fill="none" xmlns="http://www.w3.org/2000/svg">
<path d="M76.2854 117.562C76.6605 117.562 77.4165 116.999 79.2069 115.771C82.3102 114.356 89.682 112.458 98.6737 110.753C102.226 110.173 103.727 110.173 104.704 110.173" stroke="white" stroke-width="2" stroke-linecap="round"/>
<path d="M76.8538 123.814C77.9905 136.676 78.1781 141.615 78.8374 142.846C80.7966 146.502 90.0855 142.957 96.1557 142.098C99.1512 141.675 102.226 141.439 104.781 140.211C108.562 138.394 108.114 132.362 108.586 126.582C108.683 124.587 108.308 122.688 107.739 120.327C107.546 119.09 107.546 117.778 106.409 116.425" stroke="white" stroke-width="2" stroke-linecap="round"/>
<path d="M83.1057 124.951C85.1689 124.388 87.2321 123.825 89.7017 123.348C92.1713 122.871 94.9847 122.495 96.8092 122.208C98.6337 121.921 99.3839 121.734 100.725 121.541" stroke="white" stroke-width="2" stroke-linecap="round"/>
<path d="M85.3794 133.476C88.7555 132.913 92.1317 132.351 94.3398 131.967C96.5479 131.583 97.4858 131.396 98.4378 131.206C99.3898 131.015 100.328 130.828 101.294 130.634" stroke="white" stroke-width="2" stroke-linecap="round"/>
<path d="M87.0843 111.31C87.0957 99.982 84.0606 90.4844 81.1306 86.5968C78.2671 82.7973 73.8298 89.8933 72.5993 91.4052C72.119 92.1668 71.9315 92.9171 72.3975 93.3974C72.8636 93.8776 73.989 94.0652 75.1485 94.2585" stroke="white" stroke-width="2" stroke-linecap="round"/>
<path d="M93.3365 109.036C92.7681 101.874 93.1432 92.0075 93.8992 88.3983C94.4475 85.7805 97.497 84.6015 99.0089 83.749C99.7187 83.3487 100.521 83.4591 100.907 84.5845C101.294 85.7099 101.294 87.9606 101.012 89.4953C100.731 91.0299 100.168 91.7801 99.0202 93.1215" stroke="white" stroke-width="2" stroke-linecap="round"/>
<path d="M76.2853 115.288C76.2853 113.413 75.9102 111.508 75.0605 109.806C73.6488 106.978 68.9192 107.331 61.158 105.541C55.0015 104.12 50.3561 93.1784 48.9096 85.3775C47.6295 78.4739 48.8101 70.7845 52.8683 63.5008C57.1733 55.7741 66.9754 51.8349 75.3901 48.6122C83.108 45.6565 91.9724 45.3782 98.5002 45.7533C106.105 46.1903 109.046 51.4257 115.006 59.0817C119.276 64.5674 119.664 68.852 120.994 75.4707C122.909 85.0016 117.026 90.0751 114.378 92.5447C111.603 95.1319 108.694 97.8391 107.927 101.161C107.739 102.017 107.364 102.954 107.171 104C106.978 105.046 106.978 106.171 105.841 109.036" stroke="white" stroke-width="2" stroke-linecap="round"/>
<path d="M104.846 185.569C104.158 186.271 102.769 194.443 101.927 209.486C101.606 215.216 100.842 218.253 100.646 220.737C100.542 222.05 104.753 219.66 111.11 215.669C120.711 210.872 127.023 207.68 128.131 206.701C128.692 206.249 129.247 205.889 129.388 205.536" stroke="white" stroke-width="2" stroke-linecap="round"/>
<line y1="-1" x2="117.309" y2="-1" transform="matrix(0.562518 -0.826785 0.709696 0.704508 107.504 180.39)" stroke="white" stroke-width="2"/>
<line y1="-1" x2="117.309" y2="-1" transform="matrix(0.562518 -0.826785 0.709696 0.704508 135.194 201.781)" stroke="white" stroke-width="2"/>
<path d="M101.927 207.255C103.031 207.211 104.718 207.476 106.577 208.573C107.318 209.382 107.648 210.702 107.851 212.214C108.054 213.726 108.121 215.39 108.19 217.105" stroke="white" stroke-width="2" stroke-linecap="round"/>
<path d="M176.559 80.3535C178.853 80.2613 184.629 81.0828 187.864 83.2116C194.112 87.3237 195.056 90.3774 196.584 92.5769C197.848 94.3973 199.153 96.0633 200.173 98.0876C200.422 98.5821 200.811 98.9259 201.196 98.8506C202.138 98.666 202.62 97.1372 202.885 95.4724C203.682 90.4518 201.827 88.2617 200.642 86.1782C199.385 83.9674 197.62 82.3089 195.79 80.7841C194.014 79.3033 192.164 78.4016 190.356 77.4087C188.498 76.3886 182.307 76.5309 178.437 77.4805C178.005 77.7652 177.579 78.0457 177.204 78.394C176.829 78.7423 176.517 79.1499 176.244 80.7652" stroke="white" stroke-width="2" stroke-linecap="round"/>
<path d="M105.396 185.768C107.765 185.495 111.6 184.98 115.1 184.481C117.973 184.071 121.564 187.803 124.948 193.939C126.57 197.284 127.424 199.611 127.555 201.039C127.658 201.758 127.834 202.462 128.527 204.785" stroke="white" stroke-width="2" stroke-linecap="round"/>
<path d="M92.2337 1C92.0003 6.60131 91.7669 12.2026 91.2966 16.2551C90.8263 20.3075 90.1261 22.6414 88.6975 25.7533" stroke="white" stroke-width="2" stroke-linecap="round"/>
<path d="M154.47 4.53613C154.237 5.23629 154.004 5.93646 151.549 9.21449C149.095 12.4925 144.428 18.3272 139.618 25.046" stroke="white" stroke-width="2" stroke-linecap="round"/>
<path d="M170.03 45.5562C166.529 46.7231 163.028 47.89 159.591 49.308C156.154 50.726 152.886 52.3598 149.52 54.043" stroke="white" stroke-width="2" stroke-linecap="round"/>
<path d="M31.4114 21.5103L34.2403 33.5332" stroke="white" stroke-width="2" stroke-linecap="round"/>
<path d="M1.00024 66.0659C2.63396 66.2993 4.26768 66.5327 6.04284 67.2364C7.818 67.9401 9.6851 69.107 12.316 71.0166" stroke="white" stroke-width="2" stroke-linecap="round"/>
<path d="M32.8257 115.572C32.1256 115.572 31.4254 115.572 28.0307 116.739C24.636 117.906 18.5679 120.24 12.3159 122.645" stroke="white" stroke-width="2" stroke-linecap="round"/>
</svg>
