<svg width="41" height="43" viewBox="0 0 41 43" fill="none" xmlns="http://www.w3.org/2000/svg">
<path d="M0.593834 28.7324C0.758971 28.8529 0.961691 28.9248 1.18172 28.9248C1.48707 28.9248 2.11279 28.9749 2.8077 29.085C3.5096 29.1961 4.18712 29.3541 4.63094 29.5391C5.47391 29.8905 6.31734 30.4252 7.53426 31.1934C8.38886 31.7328 9.19143 32.3273 9.8995 33.0811C10.5654 33.7899 10.9938 34.5665 11.6602 35.6807C12.2333 36.6386 12.7585 37.5458 13.3741 38.4814H13.3751C13.8212 39.2276 14.3645 40.1252 14.9132 40.998L14.2208 41.7803C2.20595 45.0419 -0.252897 34.8735 0.019615 29.3818L0.593834 28.7324ZM25.5753 2.47949C25.9075 3.54648 26.3684 4.27512 27.2071 5.43652C27.7323 6.16365 28.4009 6.69319 28.9757 7.11035C29.6033 7.56589 30.0366 7.83851 30.3682 8.16016C31.2794 9.04408 32.0818 9.60144 32.8858 10.0205C33.5157 10.3488 34.1355 10.7439 34.8634 10.9727C35.2851 11.1052 35.7661 11.2974 36.294 11.5176C36.8067 11.7313 37.3705 11.9739 37.9005 12.1748C38.3349 12.3395 38.6459 12.5135 38.9317 12.6982L38.8009 14.0176L16.296 39.4355C15.8674 38.7436 15.4499 38.054 15.0919 37.4551L15.0811 37.4365L15.0684 37.418L14.6378 36.7471C14.2186 36.0778 13.8256 35.4058 13.3761 34.6543C12.7639 33.631 12.2076 32.6179 11.3565 31.7119C10.4912 30.7908 9.53734 30.0926 8.60165 29.502C7.43393 28.7648 6.43302 28.1238 5.40047 27.6934C4.73488 27.4159 3.87032 27.2282 3.1202 27.1094C2.78194 27.0558 2.44754 27.0151 2.14169 26.9844L24.5997 1.61914L25.2843 1.54785C25.3818 1.86179 25.4781 2.16723 25.5753 2.47949ZM35.1065 0.527344C35.3149 0.701414 35.5549 0.877585 35.8214 1.02832C36.0199 1.14071 36.2544 1.32226 36.6124 1.59277C36.9379 1.83879 37.3446 2.14023 37.7882 2.37598C38.3419 2.67021 39.1574 3.03776 39.8712 3.26562L39.1475 10.5342C38.9815 10.4562 38.8031 10.3781 38.6095 10.3047C38.12 10.1191 37.6071 9.89853 37.0636 9.67188C36.5355 9.45169 35.9801 9.22701 35.463 9.06445C34.9595 8.9062 34.6589 8.6882 33.8106 8.24609C33.187 7.92104 32.5404 7.48087 31.7608 6.72461C31.2928 6.27066 30.6315 5.84132 30.1505 5.49219C29.6163 5.10447 29.1607 4.72605 28.8282 4.26562C28.0189 3.14493 27.7169 2.63122 27.4845 1.88477C27.4257 1.6961 27.3695 1.5147 27.3136 1.33691L35.1065 0.527344ZM40.0743 1.21777C39.6052 1.03985 39.101 0.80925 38.7266 0.610352C38.5285 0.505051 38.3296 0.368506 38.1173 0.214844L40.1964 0L40.0743 1.21777Z" fill="white"/>
</svg>
