<svg width="631" height="379" viewBox="0 0 631 379" fill="none" xmlns="http://www.w3.org/2000/svg">
<rect width="377.669" height="87.0766" transform="matrix(0.0213788 0.999771 -0.999985 -0.00546137 630.486 1.41699)" fill="#A1D783"/>
<rect width="377.669" height="85.3351" transform="matrix(0.0213788 0.999771 -0.999985 -0.00546137 543.41 0.941406)" fill="#FFB548"/>
<rect width="377.669" height="87.0766" transform="matrix(0.0213788 0.999771 -0.999985 -0.00546137 458.076 0.475586)" fill="#69AAE4"/>
<path d="M172.361 34C174.969 34.1992 178.18 35.2012 194.338 39.7915C208.865 43.9185 236.39 51.1541 252.642 56.1459C268.894 61.1376 273.077 63.5278 275.73 64.9583C278.382 66.3889 279.378 66.7872 280.404 67.1977" stroke="#001B71" stroke-width="2" stroke-linecap="round"/>
<path d="M163.911 34C161.907 34 157.102 35.9919 152.959 39.7191C152.05 40.8267 151.054 42.221 150.242 43.5368C149.431 44.8526 148.833 46.0477 148.217 47.2791" stroke="#001B71" stroke-width="2" stroke-linecap="round"/>
<path d="M287.647 72.0264C287.647 71.8272 287.647 71.628 287.946 71.8242C289.657 74.4287 290.46 79.2454 290.466 85.3839C290.267 86.7058 289.869 87.5026 289.458 88.3235" stroke="#001B71" stroke-width="2" stroke-linecap="round"/>
<path d="M158.479 53.9189C159.076 54.1181 159.674 54.3173 160.679 54.8183C161.684 55.3193 163.078 56.116 181.325 61.9045C199.571 67.693 234.628 78.449 272.558 89.531" stroke="#001B71" stroke-width="2" stroke-linecap="round"/>
<path d="M151.839 65.3867C151.839 65.7851 151.64 67.5838 143.669 98.3822C136.098 127.639 120.561 184.355 112.46 219.674C104.36 254.994 103.962 267.144 104.055 272.905C104.149 278.667 104.747 277.671 105.362 276.645" stroke="#001B71" stroke-width="2" stroke-linecap="round"/>
<path d="M110.191 282.832C109.992 282.832 109.793 282.832 121.243 285.62C132.693 288.409 155.799 293.986 169.693 297.755C193.27 306.36 198.895 309.981 202.828 311.098C203.935 311.2 205.329 311.2 206.766 311.2" stroke="#001B71" stroke-width="2" stroke-linecap="round"/>
<path d="M215.247 306.432C215.247 304.991 216.688 301.366 225.177 279.344C232.513 260.313 244.835 224.895 253.854 195.897C262.872 166.898 267.916 145.28 270.695 133.423C273.474 121.566 273.834 120.125 275.297 118.64" stroke="#001B71" stroke-width="2" stroke-linecap="round"/>
<path d="M143.187 60.7729C142.467 60.7729 141.014 62.5744 133.432 89.2639C126.93 114.152 115.04 162.072 108.375 197.386C101.709 232.701 100.628 253.959 96.239 276.953" stroke="#001B71" stroke-width="2" stroke-linecap="round"/>
<path d="M94.0553 281.32C92.6032 284.214 91.8717 296.518 93.4985 305.138C94.7878 311.97 106.371 318.027 115.673 323.885C126.073 330.433 132.968 331.893 139.338 333.722C147.69 336.119 154.433 337.352 160.995 339.181C169.13 341.448 176.64 341.72 183.912 343.368C196.712 346.27 202.844 341.021 208.674 338.286C214.144 335.922 219.221 330.845 221.798 325.375C221.448 324.272 220.007 323.552 218.522 322.809" stroke="#001B71" stroke-width="2" stroke-linecap="round"/>
<path d="M226.165 317.35C227.246 313.005 230.161 305.733 233.066 299.362C234.012 297.286 235.599 294.837 243.727 271.74C251.856 248.642 266.628 205.046 274.778 178.984C282.929 152.923 284.01 145.717 284.567 140.383C285.123 135.05 285.123 131.807 286.215 126.282" stroke="#001B71" stroke-width="2" stroke-linecap="round"/>
<path d="M291.674 98.9863C290.954 98.9863 290.222 100.788 289.496 104.418C289.13 106.247 288.77 108.048 288.044 110.418C287.318 112.787 286.237 115.669 285.123 121.914" stroke="#001B71" stroke-width="2" stroke-linecap="round"/>
<path d="M277.481 95.7109C277.481 96.0712 277.481 96.4315 277.481 98.9591C277.481 101.487 277.481 106.171 277.12 109.484C276.76 112.798 276.039 114.599 275.297 118.639" stroke="#001B71" stroke-width="2" stroke-linecap="round"/>
<path d="M158.473 304.248C154.87 303.156 144.672 304.597 139.202 309.139C135.96 311.831 136.636 317.688 137.537 322.05C138.342 325.947 144.618 326.444 149.34 326.63C153.437 326.791 156.638 323.911 159.182 321.553C160.285 320.276 161.006 318.834 161.377 316.831C161.748 314.828 161.748 312.305 159.564 308.615" stroke="#001B71" stroke-width="2" stroke-linecap="round"/>
<path d="M60.9114 37.5117C62.0411 39.7797 67.7241 46.0362 80.5408 62.6872C84.2681 67.4244 87.9398 71.661 90.3962 74.2671C92.8525 76.8732 93.9823 77.7206 93.4345 78.5935" stroke="#001B71" stroke-width="2" stroke-linecap="round"/>
<path d="M15.55 87.1523C15.55 87.7172 16.6798 88.2906 21.3571 89.5659C30.8359 92.2533 39.2064 95.1291 43.0535 97.2645C44.6412 98.2701 45.4885 99.1174 46.3615 100.846" stroke="#001B71" stroke-width="2" stroke-linecap="round"/>
<path d="M52.3526 158.189C50.6579 158.189 41.3118 159.037 26.2142 161.027C15.0708 163.581 8.15532 165.319 4.16696 166.029C2.4381 166.457 1.30834 167.022 1.00024 167.604" stroke="#001B71" stroke-width="2" stroke-linecap="round"/>
<path d="M54.9203 194.992C54.3555 195.557 51.8049 196.413 44.9922 198.822C40.439 200.667 33.6605 203.773 29.6037 205.798C25.5468 207.822 24.4171 208.669 22.3972 209.542" stroke="#001B71" stroke-width="2" stroke-linecap="round"/>
<path d="M152.192 112.827C153.146 118.094 155.719 126.147 157.319 127.995C159.555 128.412 164.365 125.544 170.461 120.653C173.058 118.465 174.648 116.875 175.805 113.791" stroke="#001B71" stroke-width="2" stroke-linecap="round"/>
<path d="M157.975 128.248C157.975 129.043 157.975 129.838 157.657 133.11C157.339 136.383 156.703 142.107 156.529 148.488" stroke="#001B71" stroke-width="2" stroke-linecap="round"/>
<path d="M185.925 131.621C185.607 131.303 184.489 130.98 182.725 130.898C179.74 130.759 177.424 134.657 175.489 138.433C174.479 140.404 174.841 142.377 175 143.738C175.086 144.476 175.477 145.259 176.277 145.986C177.077 146.714 178.349 147.35 179.323 147.36C182.065 145.283 183.988 141.124 185.433 136.633C185.925 134.686 185.925 133.414 185.925 132.103" stroke="#001B71" stroke-width="2" stroke-linecap="round"/>
<path d="M194.117 133.549C193.799 134.667 192.835 144.546 194.349 151.049C194.546 151.899 196.026 151.697 196.835 151.461C199.89 147.866 202.623 142.397 203.907 140.151C204.396 139.177 204.555 138.541 204.719 136.44" stroke="#001B71" stroke-width="2" stroke-linecap="round"/>
<path d="M209.056 154.27C209.056 152.675 209.374 149.143 210.577 146.252C212.287 142.139 213.066 139.505 216.27 137.65C217.135 137.149 218.193 137.404 218.923 137.722C219.653 138.04 220.13 138.676 220.615 139.322C221.099 139.968 221.576 140.604 222.549 142.223" stroke="#001B71" stroke-width="2" stroke-linecap="round"/>
<path d="M138.217 200.533C138.217 197.034 139.33 192.528 142.527 185.808C150.77 168.485 155.401 164.718 156.122 163.515C156.479 162.92 157.001 162.472 157.645 162.863C159.524 164.003 161.175 170.607 163.023 179.425C163.439 186.654 162.958 190.726 162.476 192.408C162.312 193.294 162.312 194.249 162.312 195.232" stroke="#001B71" stroke-width="2" stroke-linecap="round"/>
<path d="M147.373 182.221C147.85 182.221 148.327 182.221 150.243 182.141C152.158 182.062 155.498 181.903 157.536 181.662C159.575 181.421 160.211 181.103 161.83 180.775" stroke="#001B71" stroke-width="2" stroke-linecap="round"/>
<path d="M173.396 205.834C173.555 203.275 174.514 199.106 175 195.49C175.462 192.059 176.759 188.182 178.682 185.134C181.248 181.066 184.792 181.421 186.395 181.336C187.234 181.292 187.997 182.365 188.407 183.252C188.816 184.139 188.816 185.093 188.657 185.902C188.498 186.712 188.18 187.348 187.698 187.835C184.653 189.444 179.843 190.413 176.778 189.933C176.133 189.772 175.497 189.613 174.841 189.449" stroke="#001B71" stroke-width="2" stroke-linecap="round"/>
<path d="M189.78 207.279C189.939 203.125 192.806 189.382 195.876 181.912C196.505 180.382 198.122 179.334 200.206 178.611C201.891 178.027 203.905 179.002 205.75 180.442C206.608 181.112 206.801 182.201 205.772 183.09C204.743 183.98 202.358 184.775 200.254 185.184C198.151 185.594 196.401 185.594 194.599 185.594" stroke="#001B71" stroke-width="2" stroke-linecap="round"/>
<path d="M201.828 227.519C199.283 225.606 192.209 222.064 179.4 222.372C170.549 222.586 164.259 226.546 160.174 228.866C151.482 233.804 148.992 239.384 147.937 243.407C147.448 245.269 148.014 247.267 148.891 249.508C152.061 257.609 162.283 261.879 170.391 265.336C174.453 267.069 180.426 267.035 186.922 266.876C196.717 266.636 204.854 260.626 208.403 255.97C210.179 247.643 210.184 237.649 209.225 235.09C208.584 233.485 207.63 231.259 205.683 228.483" stroke="#001B71" stroke-width="2" stroke-linecap="round"/>
<path d="M174.841 239.085C174.841 239.403 175.795 237.977 177.798 235.011C178.846 233.635 179.959 232.522 180.851 231.471C181.742 230.421 182.378 229.466 183.997 227.52" stroke="#001B71" stroke-width="2" stroke-linecap="round"/>
<path d="M195.081 231.375C194.763 232.011 193.963 233.133 192.761 234.895C191.717 236.974 190.113 239.711 188.346 242.518C187.693 243.735 187.534 244.53 187.371 245.35" stroke="#001B71" stroke-width="2" stroke-linecap="round"/>
<path d="M162.312 243.904C162.312 244.222 162.312 245.976 162.55 248.704C162.938 253.141 171.111 256.578 176.829 257.797C184.127 256.448 191.216 253.065 192.9 252.024C193.63 251.46 194.108 250.824 195.081 249.687" stroke="#001B71" stroke-width="2" stroke-linecap="round"/>
</svg>
