<svg width="44" height="40" viewBox="0 0 44 40" fill="none" xmlns="http://www.w3.org/2000/svg">
<path d="M27.317 19.5122L43.9023 19.5122L35.2383 31.2195L27.317 19.5122Z" fill="white"/>
<path d="M20 0C31.0457 0 40 8.95431 40 20C40 20.1629 39.997 20.3253 39.9932 20.4873H31.9893C31.9957 20.3257 32 20.1632 32 20C32 13.3726 26.6274 8 20 8C13.3726 8 8 13.3726 8 20C8 26.6274 13.3726 32 20 32C20.1632 32 20.3257 31.9957 20.4873 31.9893V39.9932C20.3253 39.997 20.1629 40 20 40C8.95431 40 0 31.0457 0 20C0 8.95431 8.95431 0 20 0Z" fill="white"/>
</svg>
